<svg viewBox="0 0 12 10" fill="none" xmlns="http://www.w3.org/2000/svg">
<path fill-rule="evenodd" clip-rule="evenodd" d="M0 1.25C0 0.973858 0.223858 0.75 0.5 0.75H11.5C11.7761 0.75 12 0.973858 12 1.25C12 1.52614 11.7761 1.75 11.5 1.75H0.5C0.223858 1.75 0 1.52614 0 1.25Z" fill="#7A808A"/>
<path fill-rule="evenodd" clip-rule="evenodd" d="M0 3.75C0 3.47386 0.223858 3.25 0.5 3.25H8.5C8.77614 3.25 9 3.47386 9 3.75C9 4.02614 8.77614 4.25 8.5 4.25H0.5C0.223858 4.25 0 4.02614 0 3.75Z" fill="#7A808A"/>
<path fill-rule="evenodd" clip-rule="evenodd" d="M0.000244141 6.25C0.000244141 5.97386 0.224102 5.75 0.500244 5.75H11.4999C11.776 5.75 11.9999 5.97386 11.9999 6.25C11.9999 6.52614 11.776 6.75 11.4999 6.75H0.500244C0.224102 6.75 0.000244141 6.52614 0.000244141 6.25Z" fill="#7A808A"/>
<path fill-rule="evenodd" clip-rule="evenodd" d="M0.000244141 8.75C0.000244141 8.47386 0.224102 8.25 0.500244 8.25H8.49987C8.77601 8.25 8.99987 8.47386 8.99987 8.75C8.99987 9.02614 8.77601 9.25 8.49987 9.25H0.500244C0.224102 9.25 0.000244141 9.02614 0.000244141 8.75Z" fill="#7A808A"/>
</svg>
