<svg viewBox="0 0 16 16" fill="none" xmlns="http://www.w3.org/2000/svg">
<path d="M7.21746 2.62557C6.95346 2.6729 6.67573 2.80556 6.4048 3.02156L2.09232 6.4589C1.09292 7.25624 1.09292 8.62025 2.09232 9.41691L6.4048 12.8549C7.4888 13.7189 8.67546 13.1609 8.67546 11.7716V10.5836C8.77613 10.5822 8.9088 10.5842 8.9468 10.5836C9.45346 10.5762 9.78413 10.5902 9.96746 10.6049C11.3968 10.7176 12.0615 10.9876 12.8215 11.6882C12.9221 11.7809 13.4721 12.3596 13.5301 12.4169C13.9501 12.8363 14.6755 12.5316 14.6755 11.9382C14.6755 11.8549 14.6755 11.2716 14.6755 11.2716C14.7068 7.58557 13.5475 5.5489 10.0715 5.27157C9.9488 5.26157 9.60213 5.26823 9.0088 5.27157C8.96746 5.27157 8.81746 5.27023 8.67546 5.27157C8.67546 4.78823 8.67546 4.25023 8.67546 4.1049C8.67546 3.0629 8.00946 2.4829 7.21746 2.62557ZM7.34213 3.97823L7.3428 6.60024C7.3428 6.60024 9.89946 6.59957 9.96746 6.6049C12.3281 6.7809 13.1775 7.89491 13.3275 10.3929C12.4808 9.73624 11.5488 9.38824 10.0715 9.27157C9.83147 9.25224 9.47747 9.24225 8.92546 9.25025C8.79346 9.25225 7.3428 9.26691 7.3428 9.26691L7.3528 11.9042L2.92566 8.37557C2.59552 8.11224 2.59552 7.76358 2.92566 7.50025L7.34213 3.97823Z" fill="#23262F"/>
</svg>
