<svg viewBox="0 0 17 17" fill="none" xmlns="http://www.w3.org/2000/svg">
<path d="M5.66504 1.4267C7.5842 1.4267 8.772 1.93457 9.18461 3.35265C9.27754 3.67211 9.31862 4.02769 9.33952 4.41515C9.36169 4.82669 9.34349 5.24036 9.30318 5.66465L12.04 5.67669C13.2137 5.67669 14.165 6.62798 14.165 7.80169C14.165 8.32019 13.9386 8.82097 13.5942 9.20205C13.9583 9.58385 14.165 10.0662 14.165 10.635C14.165 11.2144 13.8653 11.7776 13.4428 12.1742C13.4428 12.3478 13.4567 12.6495 13.4567 12.76C13.4567 14.0626 12.7981 14.8978 11.6416 15.2831C10.876 15.5388 10.1771 15.5933 8.49837 15.5933C5.27383 15.5933 2.83171 13.151 2.83171 9.92669C2.83171 8.31665 3.1188 7.40432 3.96065 5.72062C4.71254 4.21683 4.95671 3.47661 4.95671 2.13503C4.95671 1.74403 5.27383 1.4267 5.66504 1.4267ZM6.34823 2.87239C6.24935 4.0036 5.92514 4.97968 5.24443 6.3411C4.49254 7.84489 4.24837 8.5851 4.24837 9.92669C4.24837 12.369 6.05625 14.1767 8.49837 14.1767C11.2965 14.1767 12.04 13.9288 12.04 12.76C11.9312 12.76 11.4207 12.76 11.3317 12.76C10.9405 12.76 10.6234 12.4427 10.6234 12.0517C10.6234 11.6607 10.9405 11.3434 11.3317 11.3434C11.4207 11.3434 11.9312 11.3434 12.04 11.3434C12.3631 11.3434 12.7484 10.9609 12.7484 10.635C12.7484 10.244 12.4313 9.92669 12.04 9.92669C11.9354 9.92669 11.4205 9.92669 11.3317 9.92669C10.9405 9.92669 10.6234 9.60935 10.6234 9.21835C10.6234 8.82735 10.9405 8.51002 11.3317 8.51002C11.4205 8.51002 11.9354 8.51002 12.04 8.51002C12.3687 8.51002 12.7484 8.13531 12.7484 7.80169C12.7484 7.41069 12.4313 7.09336 12.04 7.09336H8.49837C8.466 7.09336 8.17884 7.09123 7.94502 6.80577C7.71113 6.5196 7.80917 6.26745 7.81214 6.25187C7.82737 6.17395 7.85365 6.03227 7.87858 5.83181C7.93468 5.3806 7.94538 4.9216 7.92285 4.50369C7.90741 4.21681 7.87185 3.95616 7.81214 3.75074C7.66261 3.23649 7.22769 2.91985 6.34823 2.87239Z" fill="#23262F"/>
</svg>
