<svg viewBox="0 0 17 17" fill="none" xmlns="http://www.w3.org/2000/svg">
<path d="M5.66504 15.5733C7.5842 15.5733 8.772 15.0654 9.18461 13.6474C9.27754 13.3279 9.31862 12.9723 9.33952 12.5849C9.36169 12.1733 9.34349 11.7596 9.30318 11.3353L12.04 11.3233C13.2137 11.3233 14.165 10.372 14.165 9.19831C14.165 8.67981 13.9386 8.17903 13.5942 7.79795C13.9583 7.41615 14.165 6.93377 14.165 6.36498C14.165 5.78557 13.8653 5.22244 13.4428 4.82577C13.4428 4.65223 13.4567 4.35048 13.4567 4.23998C13.4567 2.93736 12.7981 2.10223 11.6416 1.7169C10.876 1.46119 10.1771 1.40665 8.49837 1.40665C5.27383 1.40665 2.83171 3.84898 2.83171 7.07331C2.83171 8.68335 3.1188 9.59568 3.96065 11.2794C4.71254 12.7832 4.95671 13.5234 4.95671 14.865C4.95671 15.256 5.27383 15.5733 5.66504 15.5733ZM6.34823 14.1276C6.24935 12.9964 5.92514 12.0203 5.24443 10.6589C4.49254 9.15511 4.24837 8.4149 4.24837 7.07331C4.24837 4.63098 6.05625 2.82332 8.49837 2.82332C11.2965 2.82332 12.04 3.07124 12.04 4.23998C11.9312 4.23998 11.4207 4.23998 11.3317 4.23998C10.9405 4.23998 10.6234 4.55732 10.6234 4.94832C10.6234 5.33932 10.9405 5.65665 11.3317 5.65665C11.4207 5.65665 11.9312 5.65665 12.04 5.65665C12.3631 5.65665 12.7484 6.03915 12.7484 6.36498C12.7484 6.75598 12.4313 7.07331 12.04 7.07331C11.9354 7.07331 11.4205 7.07331 11.3317 7.07331C10.9405 7.07331 10.6234 7.39065 10.6234 7.78165C10.6234 8.17265 10.9405 8.48998 11.3317 8.48998C11.4205 8.48998 11.9354 8.48998 12.04 8.48998C12.3687 8.48998 12.7484 8.86469 12.7484 9.19831C12.7484 9.58931 12.4313 9.90664 12.04 9.90664H8.49837C8.466 9.90664 8.17884 9.90877 7.94502 10.1942C7.71113 10.4804 7.80917 10.7326 7.81214 10.7481C7.82737 10.8261 7.85365 10.9677 7.87858 11.1682C7.93468 11.6194 7.94538 12.0784 7.92285 12.4963C7.90741 12.7832 7.87185 13.0438 7.81214 13.2493C7.66261 13.7635 7.22769 14.0801 6.34823 14.1276Z" fill="#23262F"/>
</svg>
