<svg width="20" height="20" viewBox="0 0 20 20" fill="none" xmlns="http://www.w3.org/2000/svg">
<path d="M15.8263 19.9975H4.15991C3.49688 19.9975 2.86101 19.7341 2.39218 19.2653C1.92335 18.7964 1.65996 18.1606 1.65996 17.4975V9.16438H0.826645C0.655764 9.16301 0.489435 9.10914 0.350198 9.01007C0.210961 8.911 0.105549 8.77152 0.0482469 8.61052C-0.00905546 8.44953 -0.0154775 8.27481 0.0298514 8.11005C0.0751802 7.94528 0.170068 7.79844 0.301656 7.68941L9.46813 0.189569C9.61724 0.0670038 9.80427 0 9.99729 0C10.1903 0 10.3773 0.0670038 10.5264 0.189569L19.6929 7.68941C19.825 7.79889 19.9201 7.9465 19.9652 8.11206C20.0103 8.27761 20.0032 8.45306 19.9449 8.61443C19.8865 8.77579 19.7798 8.91521 19.6392 9.01364C19.4987 9.11208 19.3312 9.16472 19.1596 9.16438H18.3263V17.4975C18.3263 18.1606 18.0629 18.7964 17.5941 19.2653C17.1252 19.7341 16.4894 19.9975 15.8263 19.9975ZM2.9766 7.64775C3.08545 7.72524 3.17406 7.82778 3.23498 7.9467C3.29589 8.06562 3.32731 8.19745 3.32659 8.33107V17.4975C3.32659 17.7185 3.41439 17.9305 3.57067 18.0868C3.72694 18.2431 3.9389 18.3309 4.15991 18.3309H15.8263C16.0473 18.3309 16.2593 18.2431 16.4156 18.0868C16.5719 17.9305 16.6596 17.7185 16.6596 17.4975V8.33107C16.6589 8.19745 16.6904 8.06562 16.7513 7.9467C16.8122 7.82778 16.9008 7.72524 17.0096 7.64775L9.99312 1.9062L2.9766 7.64775Z" fill="white"/>
</svg>
