<svg width="17" height="14" viewBox="0 0 17 14" fill="none" xmlns="http://www.w3.org/2000/svg">
<path d="M0.85 6.8H5.95C6.17543 6.8 6.39163 6.71045 6.55104 6.55104C6.71045 6.39163 6.8 6.17543 6.8 5.95V0.85C6.8 0.624566 6.71045 0.408365 6.55104 0.248959C6.39163 0.0895535 6.17543 0 5.95 0H0.85C0.624566 0 0.408365 0.0895535 0.248959 0.248959C0.0895533 0.408365 0 0.624566 0 0.85V5.95C0 6.17543 0.0895533 6.39163 0.248959 6.55104C0.408365 6.71045 0.624566 6.8 0.85 6.8ZM1.7 1.7H5.1V5.1H1.7V1.7ZM9.35 3.4H16.15C16.3754 3.4 16.5916 3.31045 16.751 3.15104C16.9104 2.99163 17 2.77543 17 2.55C17 2.32457 16.9104 2.10837 16.751 1.94896C16.5916 1.78955 16.3754 1.7 16.15 1.7H9.35C9.12457 1.7 8.90837 1.78955 8.74896 1.94896C8.58955 2.10837 8.5 2.32457 8.5 2.55C8.5 2.77543 8.58955 2.99163 8.74896 3.15104C8.90837 3.31045 9.12457 3.4 9.35 3.4V3.4ZM9.35 11.9H0.85C0.624566 11.9 0.408365 11.9896 0.248959 12.149C0.0895533 12.3084 0 12.5246 0 12.75C0 12.9754 0.0895533 13.1916 0.248959 13.351C0.408365 13.5104 0.624566 13.6 0.85 13.6H9.35C9.57543 13.6 9.79163 13.5104 9.95104 13.351C10.1104 13.1916 10.2 12.9754 10.2 12.75C10.2 12.5246 10.1104 12.3084 9.95104 12.149C9.79163 11.9896 9.57543 11.9 9.35 11.9ZM16.15 8.5H0.85C0.624566 8.5 0.408365 8.58955 0.248959 8.74896C0.0895533 8.90837 0 9.12457 0 9.35C0 9.57543 0.0895533 9.79163 0.248959 9.95104C0.408365 10.1104 0.624566 10.2 0.85 10.2H16.15C16.3754 10.2 16.5916 10.1104 16.751 9.95104C16.9104 9.79163 17 9.57543 17 9.35C17 9.12457 16.9104 8.90837 16.751 8.74896C16.5916 8.58955 16.3754 8.5 16.15 8.5ZM16.15 5.1H9.35C9.12457 5.1 8.90837 5.18955 8.74896 5.34896C8.58955 5.50837 8.5 5.72457 8.5 5.95C8.5 6.17543 8.58955 6.39163 8.74896 6.55104C8.90837 6.71045 9.12457 6.8 9.35 6.8H16.15C16.3754 6.8 16.5916 6.71045 16.751 6.55104C16.9104 6.39163 17 6.17543 17 5.95C17 5.72457 16.9104 5.50837 16.751 5.34896C16.5916 5.18955 16.3754 5.1 16.15 5.1Z" fill="white"/>
</svg>
