<svg width="21" height="19" viewBox="0 0 21 19" fill="none" xmlns="http://www.w3.org/2000/svg">
<path fill-rule="evenodd" clip-rule="evenodd" d="M1.90625 2.4375C1.89796 2.4375 1.89001 2.44079 1.88415 2.44665C1.87829 2.45251 1.875 2.46046 1.875 2.46875V16.8802L3.91459 15.8604C4.12574 15.7549 4.37426 15.7549 4.58541 15.8604L7.375 17.2552L10.1646 15.8604C10.3757 15.7549 10.6243 15.7549 10.8354 15.8604L13.625 17.2552L16.4146 15.8604C16.6257 15.7549 16.8743 15.7549 17.0854 15.8604L19.125 16.8802V2.46875C19.125 2.46046 19.1217 2.45251 19.1158 2.44665C19.11 2.44079 19.102 2.4375 19.0938 2.4375H1.90625ZM0.823493 1.38599C1.11066 1.09883 1.50014 0.9375 1.90625 0.9375H19.0938C19.4999 0.9375 19.8893 1.09883 20.1765 1.38599C20.4637 1.67316 20.625 2.06264 20.625 2.46875V18.0938C20.625 18.3537 20.4904 18.5951 20.2693 18.7317C20.0482 18.8684 19.7721 18.8808 19.5396 18.7646L16.75 17.3698L13.9604 18.7646C13.7493 18.8701 13.5007 18.8701 13.2896 18.7646L10.5 17.3698L7.71041 18.7646C7.49926 18.8701 7.25074 18.8701 7.03959 18.7646L4.25 17.3698L1.46041 18.7646C1.22792 18.8808 0.951814 18.8684 0.730702 18.7317C0.509589 18.5951 0.375 18.3537 0.375 18.0938V2.46875C0.375 2.06264 0.536328 1.67316 0.823493 1.38599Z" fill="#7A808A"/>
<path fill-rule="evenodd" clip-rule="evenodd" d="M11.3125 7.9375C11.3125 7.52329 11.6483 7.1875 12.0625 7.1875H16.75C17.1642 7.1875 17.5 7.52329 17.5 7.9375C17.5 8.35171 17.1642 8.6875 16.75 8.6875H12.0625C11.6483 8.6875 11.3125 8.35171 11.3125 7.9375Z" fill="#7A808A"/>
<path fill-rule="evenodd" clip-rule="evenodd" d="M11.3125 11.0625C11.3125 10.6483 11.6483 10.3125 12.0625 10.3125H16.75C17.1642 10.3125 17.5 10.6483 17.5 11.0625C17.5 11.4767 17.1642 11.8125 16.75 11.8125H12.0625C11.6483 11.8125 11.3125 11.4767 11.3125 11.0625Z" fill="#7A808A"/>
<path fill-rule="evenodd" clip-rule="evenodd" d="M3.5 6.375C3.5 5.96079 3.83579 5.625 4.25 5.625H8.9375C9.35171 5.625 9.6875 5.96079 9.6875 6.375V12.625C9.6875 13.0392 9.35171 13.375 8.9375 13.375H4.25C3.83579 13.375 3.5 13.0392 3.5 12.625V6.375ZM5 7.125V11.875H8.1875V7.125H5Z" fill="#7A808A"/>
</svg>
